<svg width="20.000000" height="20.000000" viewBox="0 0 20 20" fill="none" xmlns="http://www.w3.org/2000/svg" xmlns:xlink="http://www.w3.org/1999/xlink">
	<desc>
			Created with Pixso.
	</desc>
	<defs/>
	<path id="Icon color" d="M16.54 6.04L7.7 14.87C7.62 14.95 7.52 14.99 7.41 14.99C7.3 14.99 7.19 14.95 7.11 14.87L2.62 10.38C2.54 10.3 2.5 10.19 2.5 10.08C2.5 9.97 2.54 9.86 2.62 9.79L3.2 9.2C3.28 9.12 3.39 9.08 3.5 9.08C3.61 9.08 3.72 9.12 3.79 9.2L7.4 12.81L15.36 4.85C15.53 4.69 15.79 4.69 15.95 4.85L16.54 5.45C16.62 5.52 16.66 5.63 16.66 5.74C16.66 5.85 16.62 5.96 16.54 6.04Z" fill="#596469" fill-opacity="1.000000" fill-rule="nonzero"/>
	<path id="Icon color" d="M7.7 14.87C7.62 14.95 7.52 14.99 7.41 14.99C7.3 14.99 7.19 14.95 7.11 14.87L2.62 10.38C2.54 10.3 2.5 10.19 2.5 10.08C2.5 9.97 2.54 9.86 2.62 9.79L3.2 9.2C3.28 9.12 3.39 9.08 3.5 9.08C3.61 9.08 3.72 9.12 3.79 9.2L7.4 12.81L15.36 4.85C15.53 4.69 15.79 4.69 15.95 4.85L16.54 5.45C16.62 5.52 16.66 5.63 16.66 5.74C16.66 5.85 16.62 5.96 16.54 6.04L7.7 14.87Z" stroke="#596469" stroke-opacity="1.000000" stroke-width="1.000000"/>
</svg>
